<svg xmlns="http://www.w3.org/2000/svg" width="256" height="256" viewBox="0 0 256 256">
  <rect x="12" y="12" width="232" height="232" rx="54" fill="#8e8e93"/>
  <circle cx="128" cy="128" r="74" fill="#f2f2f7"/>
  <g fill="#6e6e73">
    <rect x="116" y="36" width="24" height="42" rx="8"/>
    <rect x="116" y="178" width="24" height="42" rx="8"/>
    <rect x="178" y="116" width="42" height="24" rx="8"/>
    <rect x="36" y="116" width="42" height="24" rx="8"/>
    <rect x="166" y="55" width="24" height="42" rx="8" transform="rotate(45 178 76)"/>
    <rect x="66" y="155" width="24" height="42" rx="8" transform="rotate(45 78 176)"/>
    <rect x="155" y="166" width="42" height="24" rx="8" transform="rotate(45 176 178)"/>
    <rect x="55" y="66" width="42" height="24" rx="8" transform="rotate(45 76 78)"/>
  </g>
  <circle cx="128" cy="128" r="36" fill="#8e8e93"/>
  <circle cx="128" cy="128" r="17" fill="#f2f2f7"/>
</svg>
